<svg xmlns="http://www.w3.org/2000/svg" xmlns:xlink="http://www.w3.org/1999/xlink" width="500" zoomAndPan="magnify" viewBox="0 0 375 374.999991" height="500" preserveAspectRatio="xMidYMid meet" version="1.0"><defs><clipPath id="dee178a26c"><path d="M 11.597656 12.257812 L 241 12.257812 L 241 362.507812 L 11.597656 362.507812 Z M 11.597656 12.257812 " clip-rule="nonzero"/></clipPath></defs><path fill="#000000" d="M 356.3125 174.589844 L 288.035156 106.347656 C 287.617188 105.929688 287.179688 105.53125 286.71875 105.15625 C 286.261719 104.777344 285.785156 104.425781 285.292969 104.097656 C 284.800781 103.769531 284.292969 103.464844 283.769531 103.183594 C 283.246094 102.90625 282.710938 102.652344 282.164062 102.425781 C 281.613281 102.199219 281.058594 102 280.488281 101.828125 C 279.921875 101.65625 279.347656 101.511719 278.765625 101.394531 C 278.183594 101.28125 277.597656 101.191406 277.007812 101.132812 C 276.417969 101.078125 275.828125 101.046875 275.234375 101.046875 C 274.640625 101.046875 274.050781 101.078125 273.460938 101.132812 C 272.871094 101.191406 272.285156 101.28125 271.703125 101.394531 C 271.121094 101.511719 270.546875 101.65625 269.980469 101.828125 C 269.410156 102 268.855469 102.199219 268.304688 102.425781 C 267.757812 102.652344 267.222656 102.90625 266.699219 103.183594 C 266.175781 103.464844 265.667969 103.769531 265.175781 104.097656 C 264.683594 104.425781 264.207031 104.777344 263.75 105.15625 C 263.289062 105.53125 262.851562 105.929688 262.433594 106.347656 C 262.011719 106.765625 261.617188 107.207031 261.238281 107.664062 C 260.863281 108.121094 260.511719 108.597656 260.179688 109.089844 C 259.851562 109.582031 259.546875 110.089844 259.265625 110.613281 C 258.988281 111.136719 258.734375 111.671875 258.507812 112.21875 C 258.28125 112.765625 258.082031 113.324219 257.910156 113.890625 C 257.738281 114.457031 257.59375 115.03125 257.476562 115.613281 C 257.363281 116.195312 257.273438 116.78125 257.21875 117.367188 C 257.160156 117.957031 257.128906 118.550781 257.128906 119.144531 C 257.128906 119.734375 257.160156 120.328125 257.21875 120.917969 C 257.273438 121.507812 257.363281 122.089844 257.476562 122.671875 C 257.59375 123.253906 257.738281 123.828125 257.910156 124.394531 C 258.082031 124.960938 258.28125 125.519531 258.507812 126.066406 C 258.734375 126.613281 258.988281 127.148438 259.265625 127.671875 C 259.546875 128.195312 259.851562 128.703125 260.179688 129.195312 C 260.511719 129.6875 260.863281 130.164062 261.238281 130.621094 C 261.617188 131.082031 262.011719 131.519531 262.433594 131.9375 L 299.800781 169.289062 L 102.121094 169.289062 C 101.527344 169.289062 100.9375 169.316406 100.34375 169.375 C 99.753906 169.433594 99.167969 169.519531 98.589844 169.636719 C 98.007812 169.75 97.433594 169.894531 96.863281 170.066406 C 96.296875 170.238281 95.738281 170.4375 95.191406 170.664062 C 94.644531 170.894531 94.109375 171.144531 93.585938 171.425781 C 93.0625 171.703125 92.554688 172.007812 92.0625 172.339844 C 91.570312 172.667969 91.09375 173.019531 90.636719 173.394531 C 90.175781 173.773438 89.738281 174.167969 89.320312 174.589844 C 88.898438 175.007812 88.5 175.445312 88.125 175.902344 C 87.75 176.363281 87.394531 176.835938 87.066406 177.332031 C 86.738281 177.824219 86.433594 178.332031 86.152344 178.855469 C 85.875 179.375 85.621094 179.910156 85.394531 180.457031 C 85.167969 181.007812 84.96875 181.5625 84.796875 182.132812 C 84.625 182.699219 84.480469 183.273438 84.363281 183.851562 C 84.25 184.433594 84.160156 185.019531 84.101562 185.609375 C 84.046875 186.199219 84.015625 186.789062 84.015625 187.382812 C 84.015625 187.976562 84.046875 188.566406 84.101562 189.15625 C 84.160156 189.746094 84.25 190.332031 84.363281 190.914062 C 84.480469 191.496094 84.625 192.070312 84.796875 192.636719 C 84.96875 193.203125 85.167969 193.761719 85.394531 194.308594 C 85.621094 194.855469 85.875 195.390625 86.152344 195.914062 C 86.433594 196.4375 86.738281 196.945312 87.066406 197.4375 C 87.394531 197.929688 87.75 198.40625 88.125 198.863281 C 88.5 199.320312 88.898438 199.757812 89.320312 200.179688 C 89.738281 200.597656 90.175781 200.996094 90.636719 201.371094 C 91.09375 201.746094 91.570312 202.101562 92.0625 202.429688 C 92.554688 202.757812 93.0625 203.0625 93.585938 203.34375 C 94.109375 203.621094 94.644531 203.875 95.191406 204.101562 C 95.738281 204.328125 96.296875 204.527344 96.863281 204.699219 C 97.433594 204.871094 98.007812 205.015625 98.589844 205.132812 C 99.167969 205.246094 99.753906 205.332031 100.34375 205.390625 C 100.9375 205.449219 101.527344 205.480469 102.121094 205.480469 L 299.800781 205.480469 L 262.433594 242.828125 C 262.011719 243.25 261.617188 243.6875 261.238281 244.144531 C 260.863281 244.601562 260.511719 245.078125 260.179688 245.570312 C 259.851562 246.0625 259.546875 246.570312 259.265625 247.09375 C 258.988281 247.617188 258.734375 248.152344 258.507812 248.699219 C 258.28125 249.246094 258.082031 249.804688 257.910156 250.371094 C 257.738281 250.9375 257.59375 251.511719 257.476562 252.09375 C 257.363281 252.675781 257.273438 253.261719 257.21875 253.851562 C 257.160156 254.441406 257.128906 255.03125 257.128906 255.625 C 257.128906 256.21875 257.160156 256.808594 257.21875 257.398438 C 257.273438 257.988281 257.363281 258.574219 257.476562 259.15625 C 257.59375 259.734375 257.738281 260.308594 257.910156 260.878906 C 258.082031 261.445312 258.28125 262.003906 258.507812 262.550781 C 258.734375 263.097656 258.988281 263.632812 259.269531 264.15625 C 259.546875 264.675781 259.851562 265.183594 260.179688 265.679688 C 260.511719 266.171875 260.863281 266.644531 261.238281 267.105469 C 261.617188 267.5625 262.011719 268 262.433594 268.421875 C 262.851562 268.839844 263.289062 269.238281 263.75 269.613281 C 264.207031 269.988281 264.683594 270.339844 265.175781 270.671875 C 265.667969 271 266.175781 271.304688 266.699219 271.582031 C 267.222656 271.863281 267.757812 272.117188 268.304688 272.34375 C 268.855469 272.570312 269.410156 272.769531 269.980469 272.941406 C 270.546875 273.113281 271.121094 273.257812 271.703125 273.371094 C 272.285156 273.488281 272.871094 273.574219 273.460938 273.632812 C 274.050781 273.691406 274.640625 273.71875 275.234375 273.71875 C 275.828125 273.71875 276.417969 273.691406 277.007812 273.632812 C 277.597656 273.574219 278.183594 273.488281 278.765625 273.371094 C 279.347656 273.257812 279.921875 273.113281 280.488281 272.941406 C 281.058594 272.769531 281.613281 272.570312 282.164062 272.34375 C 282.710938 272.117188 283.246094 271.863281 283.769531 271.582031 C 284.292969 271.304688 284.800781 271 285.292969 270.671875 C 285.785156 270.339844 286.261719 269.988281 286.71875 269.613281 C 287.179688 269.234375 287.617188 268.839844 288.035156 268.417969 L 356.3125 200.179688 C 356.730469 199.757812 357.128906 199.320312 357.503906 198.863281 C 357.882812 198.40625 358.234375 197.929688 358.5625 197.4375 C 358.894531 196.945312 359.195312 196.4375 359.476562 195.914062 C 359.757812 195.390625 360.007812 194.855469 360.234375 194.308594 C 360.464844 193.761719 360.664062 193.203125 360.835938 192.636719 C 361.007812 192.070312 361.152344 191.496094 361.265625 190.914062 C 361.382812 190.332031 361.46875 189.746094 361.527344 189.15625 C 361.585938 188.566406 361.613281 187.976562 361.613281 187.382812 C 361.613281 186.789062 361.585938 186.199219 361.527344 185.609375 C 361.46875 185.019531 361.382812 184.433594 361.265625 183.851562 C 361.152344 183.273438 361.007812 182.699219 360.835938 182.128906 C 360.664062 181.5625 360.464844 181.007812 360.234375 180.457031 C 360.007812 179.910156 359.757812 179.375 359.476562 178.851562 C 359.195312 178.332031 358.894531 177.824219 358.5625 177.332031 C 358.234375 176.835938 357.882812 176.363281 357.503906 175.902344 C 357.128906 175.445312 356.730469 175.007812 356.3125 174.589844 Z M 356.3125 174.589844 " fill-opacity="1" fill-rule="nonzero"/><g clip-path="url(#dee178a26c)"><path fill="#000000" d="M 222.816406 289.921875 C 222.222656 289.921875 221.628906 289.953125 221.039062 290.011719 C 220.449219 290.066406 219.863281 290.15625 219.28125 290.269531 C 218.703125 290.386719 218.128906 290.53125 217.558594 290.703125 C 216.992188 290.875 216.433594 291.074219 215.886719 291.300781 C 215.339844 291.527344 214.804688 291.78125 214.28125 292.058594 C 213.757812 292.339844 213.25 292.644531 212.757812 292.972656 C 212.265625 293.300781 211.789062 293.652344 211.328125 294.03125 C 210.871094 294.40625 210.433594 294.804688 210.011719 295.222656 C 209.59375 295.640625 209.195312 296.082031 208.820312 296.539062 C 208.445312 296.996094 208.089844 297.472656 207.761719 297.964844 C 207.433594 298.457031 207.128906 298.964844 206.847656 299.488281 C 206.570312 300.011719 206.316406 300.546875 206.089844 301.09375 C 205.863281 301.640625 205.664062 302.199219 205.492188 302.765625 C 205.316406 303.332031 205.175781 303.90625 205.058594 304.488281 C 204.941406 305.070312 204.855469 305.65625 204.796875 306.246094 C 204.738281 306.835938 204.710938 307.425781 204.710938 308.019531 L 204.710938 326.113281 L 47.808594 326.113281 L 47.808594 48.652344 L 204.710938 48.652344 L 204.710938 66.75 C 204.710938 67.34375 204.738281 67.933594 204.796875 68.523438 C 204.855469 69.113281 204.941406 69.699219 205.058594 70.28125 C 205.175781 70.859375 205.316406 71.433594 205.492188 72.003906 C 205.664062 72.570312 205.863281 73.125 206.089844 73.675781 C 206.316406 74.222656 206.570312 74.757812 206.847656 75.28125 C 207.128906 75.800781 207.433594 76.308594 207.761719 76.800781 C 208.089844 77.296875 208.445312 77.769531 208.820312 78.230469 C 209.195312 78.6875 209.59375 79.125 210.011719 79.542969 C 210.433594 79.964844 210.871094 80.359375 211.328125 80.738281 C 211.789062 81.113281 212.265625 81.464844 212.757812 81.796875 C 213.25 82.125 213.757812 82.429688 214.28125 82.707031 C 214.804688 82.988281 215.339844 83.242188 215.886719 83.46875 C 216.433594 83.695312 216.992188 83.894531 217.558594 84.066406 C 218.128906 84.238281 218.703125 84.382812 219.28125 84.496094 C 219.863281 84.613281 220.449219 84.699219 221.039062 84.757812 C 221.628906 84.816406 222.222656 84.84375 222.816406 84.84375 C 223.40625 84.84375 224 84.816406 224.589844 84.757812 C 225.179688 84.699219 225.765625 84.613281 226.347656 84.496094 C 226.929688 84.382812 227.503906 84.238281 228.070312 84.066406 C 228.636719 83.894531 229.195312 83.695312 229.742188 83.46875 C 230.289062 83.242188 230.828125 82.988281 231.347656 82.707031 C 231.871094 82.429688 232.378906 82.125 232.875 81.796875 C 233.367188 81.464844 233.84375 81.113281 234.300781 80.738281 C 234.757812 80.359375 235.199219 79.964844 235.617188 79.542969 C 236.035156 79.125 236.433594 78.6875 236.808594 78.230469 C 237.1875 77.769531 237.539062 77.296875 237.867188 76.800781 C 238.199219 76.308594 238.503906 75.800781 238.78125 75.28125 C 239.0625 74.757812 239.3125 74.222656 239.542969 73.675781 C 239.769531 73.125 239.96875 72.570312 240.140625 72.003906 C 240.3125 71.433594 240.457031 70.859375 240.570312 70.28125 C 240.6875 69.699219 240.773438 69.113281 240.832031 68.523438 C 240.890625 67.933594 240.917969 67.34375 240.917969 66.75 L 240.917969 42.621094 C 240.917969 41.636719 240.871094 40.648438 240.773438 39.667969 C 240.675781 38.683594 240.53125 37.707031 240.339844 36.738281 C 240.148438 35.769531 239.90625 34.8125 239.621094 33.867188 C 239.332031 32.921875 239 31.992188 238.621094 31.082031 C 238.246094 30.167969 237.820312 29.277344 237.355469 28.40625 C 236.890625 27.535156 236.382812 26.6875 235.835938 25.867188 C 235.285156 25.046875 234.695312 24.253906 234.070312 23.488281 C 233.441406 22.726562 232.78125 21.996094 232.082031 21.296875 C 231.382812 20.597656 230.652344 19.9375 229.886719 19.308594 C 229.125 18.683594 228.332031 18.09375 227.507812 17.546875 C 226.6875 16.996094 225.839844 16.492188 224.96875 16.023438 C 224.097656 15.558594 223.207031 15.136719 222.292969 14.757812 C 221.378906 14.382812 220.449219 14.050781 219.503906 13.761719 C 218.558594 13.476562 217.601562 13.234375 216.632812 13.042969 C 215.664062 12.851562 214.6875 12.707031 213.703125 12.609375 C 212.71875 12.511719 211.734375 12.464844 210.746094 12.464844 L 41.773438 12.464844 C 40.785156 12.464844 39.796875 12.511719 38.816406 12.609375 C 37.832031 12.707031 36.855469 12.851562 35.886719 13.042969 C 34.917969 13.234375 33.960938 13.476562 33.015625 13.761719 C 32.066406 14.050781 31.140625 14.382812 30.226562 14.757812 C 29.3125 15.136719 28.421875 15.558594 27.550781 16.023438 C 26.675781 16.492188 25.832031 16.996094 25.007812 17.546875 C 24.1875 18.09375 23.394531 18.683594 22.628906 19.308594 C 21.867188 19.9375 21.136719 20.597656 20.4375 21.296875 C 19.738281 21.996094 19.074219 22.726562 18.449219 23.488281 C 17.820312 24.253906 17.234375 25.046875 16.683594 25.867188 C 16.136719 26.6875 15.628906 27.535156 15.160156 28.40625 C 14.695312 29.277344 14.273438 30.167969 13.894531 31.082031 C 13.519531 31.992188 13.183594 32.921875 12.898438 33.867188 C 12.613281 34.8125 12.371094 35.769531 12.179688 36.738281 C 11.984375 37.707031 11.839844 38.683594 11.746094 39.667969 C 11.648438 40.648438 11.597656 41.636719 11.597656 42.621094 L 11.597656 332.144531 C 11.597656 333.132812 11.648438 334.117188 11.746094 335.101562 C 11.839844 336.082031 11.984375 337.058594 12.179688 338.027344 C 12.371094 338.996094 12.613281 339.953125 12.898438 340.898438 C 13.183594 341.84375 13.519531 342.773438 13.894531 343.6875 C 14.273438 344.597656 14.695312 345.488281 15.160156 346.359375 C 15.628906 347.230469 16.136719 348.078125 16.683594 348.898438 C 17.234375 349.722656 17.820312 350.511719 18.449219 351.277344 C 19.074219 352.039062 19.738281 352.773438 20.4375 353.46875 C 21.136719 354.167969 21.867188 354.832031 22.628906 355.457031 C 23.394531 356.085938 24.1875 356.671875 25.007812 357.21875 C 25.832031 357.769531 26.675781 358.277344 27.550781 358.742188 C 28.421875 359.207031 29.3125 359.628906 30.226562 360.007812 C 31.140625 360.386719 32.066406 360.71875 33.015625 361.003906 C 33.960938 361.292969 34.917969 361.53125 35.886719 361.722656 C 36.855469 361.917969 37.832031 362.0625 38.816406 362.15625 C 39.796875 362.253906 40.785156 362.304688 41.773438 362.304688 L 210.746094 362.304688 C 211.734375 362.304688 212.71875 362.253906 213.703125 362.15625 C 214.6875 362.0625 215.664062 361.917969 216.632812 361.722656 C 217.601562 361.53125 218.558594 361.292969 219.503906 361.003906 C 220.449219 360.71875 221.378906 360.386719 222.292969 360.007812 C 223.207031 359.628906 224.097656 359.207031 224.96875 358.742188 C 225.839844 358.277344 226.6875 357.769531 227.507812 357.21875 C 228.332031 356.671875 229.125 356.085938 229.886719 355.457031 C 230.652344 354.832031 231.382812 354.167969 232.082031 353.46875 C 232.78125 352.773438 233.441406 352.039062 234.070312 351.277344 C 234.695312 350.511719 235.285156 349.722656 235.835938 348.898438 C 236.382812 348.078125 236.890625 347.234375 237.355469 346.363281 C 237.820312 345.492188 238.246094 344.597656 238.621094 343.6875 C 239 342.773438 239.332031 341.84375 239.621094 340.898438 C 239.90625 339.953125 240.148438 338.996094 240.339844 338.027344 C 240.53125 337.058594 240.675781 336.082031 240.773438 335.101562 C 240.871094 334.117188 240.917969 333.132812 240.917969 332.144531 L 240.917969 308.019531 C 240.917969 307.425781 240.890625 306.835938 240.832031 306.246094 C 240.773438 305.65625 240.6875 305.070312 240.570312 304.488281 C 240.457031 303.90625 240.3125 303.332031 240.140625 302.765625 C 239.96875 302.199219 239.769531 301.640625 239.542969 301.09375 C 239.3125 300.546875 239.0625 300.011719 238.78125 299.488281 C 238.503906 298.964844 238.199219 298.457031 237.867188 297.964844 C 237.539062 297.472656 237.1875 296.996094 236.808594 296.539062 C 236.433594 296.082031 236.035156 295.640625 235.617188 295.222656 C 235.199219 294.804688 234.757812 294.40625 234.300781 294.03125 C 233.84375 293.652344 233.367188 293.300781 232.875 292.972656 C 232.378906 292.644531 231.871094 292.339844 231.347656 292.058594 C 230.828125 291.78125 230.289062 291.527344 229.742188 291.300781 C 229.195312 291.074219 228.636719 290.875 228.070312 290.703125 C 227.503906 290.53125 226.929688 290.386719 226.347656 290.269531 C 225.765625 290.15625 225.179688 290.066406 224.589844 290.011719 C 224 289.953125 223.40625 289.921875 222.816406 289.921875 Z M 222.816406 289.921875 " fill-opacity="1" fill-rule="nonzero"/></g></svg>