<svg xmlns="http://www.w3.org/2000/svg" xmlns:xlink="http://www.w3.org/1999/xlink" width="500" zoomAndPan="magnify" viewBox="0 0 375 374.999991" height="500" preserveAspectRatio="xMidYMid meet" version="1.0"><defs><clipPath id="b82478a855"><path d="M 4.554688 4.554688 L 370.554688 4.554688 L 370.554688 370.554688 L 4.554688 370.554688 Z M 4.554688 4.554688 " clip-rule="nonzero"/></clipPath></defs><g clip-path="url(#b82478a855)"><path fill="#000000" d="M 187.554688 4.554688 C 184.558594 4.554688 181.566406 4.628906 178.574219 4.777344 C 175.585938 4.921875 172.597656 5.144531 169.617188 5.4375 C 166.636719 5.730469 163.667969 6.097656 160.703125 6.535156 C 157.742188 6.976562 154.792969 7.488281 151.855469 8.070312 C 148.917969 8.65625 145.996094 9.3125 143.089844 10.039062 C 140.183594 10.765625 137.300781 11.566406 134.433594 12.433594 C 131.566406 13.304688 128.722656 14.242188 125.90625 15.253906 C 123.085938 16.261719 120.292969 17.339844 117.523438 18.484375 C 114.757812 19.632812 112.019531 20.84375 109.3125 22.125 C 106.605469 23.40625 103.929688 24.75 101.289062 26.164062 C 98.648438 27.574219 96.042969 29.050781 93.472656 30.589844 C 90.90625 32.128906 88.375 33.730469 85.886719 35.394531 C 83.394531 37.058594 80.949219 38.785156 78.542969 40.566406 C 76.136719 42.351562 73.777344 44.195312 71.460938 46.09375 C 69.144531 47.996094 66.878906 49.949219 64.660156 51.960938 C 62.441406 53.972656 60.273438 56.035156 58.15625 58.15625 C 56.035156 60.273438 53.972656 62.441406 51.960938 64.660156 C 49.949219 66.878906 47.996094 69.144531 46.09375 71.460938 C 44.195312 73.777344 42.351562 76.136719 40.566406 78.542969 C 38.785156 80.949219 37.058594 83.394531 35.394531 85.886719 C 33.730469 88.375 32.128906 90.90625 30.589844 93.472656 C 29.050781 96.042969 27.574219 98.648438 26.164062 101.289062 C 24.75 103.929688 23.40625 106.605469 22.125 109.3125 C 20.84375 112.019531 19.632812 114.757812 18.484375 117.523438 C 17.339844 120.292969 16.261719 123.085938 15.253906 125.90625 C 14.242188 128.722656 13.304688 131.566406 12.433594 134.433594 C 11.566406 137.300781 10.765625 140.183594 10.039062 143.089844 C 9.3125 145.996094 8.65625 148.917969 8.070312 151.855469 C 7.488281 154.792969 6.976562 157.742188 6.535156 160.703125 C 6.097656 163.667969 5.730469 166.636719 5.4375 169.617188 C 5.144531 172.597656 4.921875 175.585938 4.777344 178.574219 C 4.628906 181.566406 4.554688 184.558594 4.554688 187.554688 C 4.554688 190.550781 4.628906 193.542969 4.777344 196.535156 C 4.921875 199.527344 5.144531 202.511719 5.4375 205.492188 C 5.730469 208.472656 6.097656 211.445312 6.535156 214.40625 C 6.976562 217.371094 7.488281 220.320312 8.070312 223.257812 C 8.65625 226.195312 9.3125 229.117188 10.039062 232.019531 C 10.765625 234.925781 11.566406 237.8125 12.433594 240.675781 C 13.304688 243.542969 14.242188 246.386719 15.253906 249.207031 C 16.261719 252.027344 17.339844 254.820312 18.484375 257.585938 C 19.632812 260.351562 20.84375 263.089844 22.125 265.796875 C 23.40625 268.503906 24.75 271.179688 26.164062 273.820312 C 27.574219 276.460938 29.050781 279.066406 30.589844 281.636719 C 32.128906 284.203125 33.730469 286.734375 35.394531 289.222656 C 37.058594 291.714844 38.785156 294.164062 40.566406 296.566406 C 42.351562 298.972656 44.195312 301.335938 46.09375 303.648438 C 47.996094 305.964844 49.949219 308.230469 51.960938 310.449219 C 53.972656 312.667969 56.035156 314.839844 58.15625 316.957031 C 60.273438 319.074219 62.441406 321.136719 64.660156 323.148438 C 66.878906 325.160156 69.144531 327.117188 71.460938 329.015625 C 73.777344 330.917969 76.136719 332.757812 78.542969 334.542969 C 80.949219 336.328125 83.394531 338.050781 85.886719 339.714844 C 88.375 341.378906 90.90625 342.980469 93.472656 344.519531 C 96.042969 346.058594 98.648438 347.535156 101.289062 348.945312 C 103.929688 350.359375 106.605469 351.703125 109.3125 352.984375 C 112.019531 354.265625 114.757812 355.480469 117.523438 356.625 C 120.292969 357.769531 123.085938 358.847656 125.90625 359.859375 C 128.722656 360.867188 131.566406 361.804688 134.433594 362.675781 C 137.300781 363.542969 140.183594 364.34375 143.089844 365.070312 C 145.996094 365.796875 148.917969 366.453125 151.855469 367.039062 C 154.792969 367.625 157.742188 368.136719 160.703125 368.574219 C 163.667969 369.015625 166.636719 369.378906 169.617188 369.675781 C 172.597656 369.96875 175.585938 370.1875 178.574219 370.335938 C 181.566406 370.480469 184.558594 370.554688 187.554688 370.554688 C 190.550781 370.554688 193.542969 370.480469 196.535156 370.335938 C 199.527344 370.1875 202.511719 369.96875 205.492188 369.675781 C 208.472656 369.378906 211.445312 369.015625 214.40625 368.574219 C 217.371094 368.136719 220.320312 367.625 223.257812 367.039062 C 226.195312 366.453125 229.117188 365.796875 232.019531 365.070312 C 234.925781 364.34375 237.8125 363.542969 240.675781 362.675781 C 243.542969 361.804688 246.386719 360.867188 249.207031 359.859375 C 252.027344 358.847656 254.820312 357.769531 257.585938 356.625 C 260.351562 355.480469 263.089844 354.265625 265.796875 352.984375 C 268.503906 351.703125 271.179688 350.359375 273.820312 348.945312 C 276.460938 347.535156 279.066406 346.058594 281.636719 344.519531 C 284.203125 342.980469 286.734375 341.378906 289.222656 339.714844 C 291.714844 338.050781 294.164062 336.328125 296.566406 334.542969 C 298.972656 332.757812 301.335938 330.917969 303.648438 329.015625 C 305.964844 327.117188 308.230469 325.160156 310.449219 323.148438 C 312.667969 321.136719 314.839844 319.074219 316.957031 316.957031 C 319.074219 314.839844 321.136719 312.667969 323.148438 310.449219 C 325.160156 308.230469 327.117188 305.964844 329.015625 303.648438 C 330.917969 301.335938 332.757812 298.972656 334.542969 296.566406 C 336.328125 294.164062 338.050781 291.714844 339.714844 289.222656 C 341.378906 286.734375 342.980469 284.203125 344.519531 281.636719 C 346.058594 279.066406 347.535156 276.460938 348.945312 273.820312 C 350.359375 271.179688 351.703125 268.503906 352.984375 265.796875 C 354.265625 263.089844 355.480469 260.351562 356.625 257.585938 C 357.769531 254.820312 358.847656 252.027344 359.859375 249.207031 C 360.867188 246.386719 361.804688 243.542969 362.675781 240.675781 C 363.542969 237.8125 364.34375 234.925781 365.070312 232.019531 C 365.796875 229.117188 366.453125 226.195312 367.039062 223.257812 C 367.625 220.320312 368.136719 217.371094 368.574219 214.40625 C 369.015625 211.445312 369.378906 208.472656 369.675781 205.492188 C 369.96875 202.511719 370.1875 199.527344 370.335938 196.535156 C 370.480469 193.542969 370.554688 190.550781 370.554688 187.554688 C 370.554688 184.558594 370.480469 181.566406 370.332031 178.578125 C 370.1875 175.585938 369.964844 172.597656 369.671875 169.617188 C 369.378906 166.636719 369.011719 163.667969 368.570312 160.703125 C 368.132812 157.742188 367.621094 154.792969 367.035156 151.855469 C 366.449219 148.917969 365.792969 145.996094 365.066406 143.09375 C 364.339844 140.1875 363.539062 137.300781 362.671875 134.4375 C 361.800781 131.570312 360.859375 128.726562 359.851562 125.90625 C 358.84375 123.085938 357.765625 120.292969 356.617188 117.527344 C 355.472656 114.761719 354.257812 112.023438 352.980469 109.316406 C 351.699219 106.609375 350.351562 103.933594 348.941406 101.292969 C 347.527344 98.652344 346.050781 96.046875 344.511719 93.480469 C 342.972656 90.910156 341.371094 88.382812 339.707031 85.890625 C 338.042969 83.402344 336.320312 80.953125 334.535156 78.546875 C 332.75 76.144531 330.910156 73.78125 329.007812 71.46875 C 327.109375 69.152344 325.152344 66.886719 323.140625 64.667969 C 321.132812 62.449219 319.066406 60.277344 316.949219 58.160156 C 314.832031 56.042969 312.664062 53.980469 310.445312 51.96875 C 308.226562 49.957031 305.957031 48 303.644531 46.101562 C 301.328125 44.203125 298.96875 42.359375 296.5625 40.574219 C 294.15625 38.792969 291.710938 37.066406 289.21875 35.402344 C 286.730469 33.738281 284.199219 32.136719 281.632812 30.597656 C 279.0625 29.058594 276.457031 27.582031 273.816406 26.171875 C 271.175781 24.757812 268.5 23.414062 265.792969 22.132812 C 263.085938 20.851562 260.347656 19.636719 257.582031 18.492188 C 254.816406 17.34375 252.023438 16.265625 249.203125 15.257812 C 246.382812 14.25 243.539062 13.308594 240.675781 12.441406 C 237.808594 11.570312 234.921875 10.773438 232.019531 10.042969 C 229.113281 9.316406 226.191406 8.660156 223.253906 8.074219 C 220.316406 7.492188 217.367188 6.980469 214.40625 6.539062 C 211.445312 6.097656 208.472656 5.730469 205.492188 5.4375 C 202.511719 5.144531 199.527344 4.925781 196.535156 4.777344 C 193.542969 4.628906 190.550781 4.554688 187.554688 4.554688 Z M 187.554688 73.179688 C 188.636719 73.179688 189.71875 73.210938 190.800781 73.273438 C 191.882812 73.335938 192.960938 73.429688 194.035156 73.550781 C 195.109375 73.675781 196.179688 73.832031 197.246094 74.019531 C 198.3125 74.203125 199.375 74.421875 200.429688 74.667969 C 201.480469 74.917969 202.527344 75.195312 203.566406 75.503906 C 204.605469 75.8125 205.632812 76.148438 206.648438 76.519531 C 207.667969 76.886719 208.675781 77.28125 209.671875 77.707031 C 210.664062 78.132812 211.648438 78.589844 212.617188 79.070312 C 213.585938 79.554688 214.539062 80.066406 215.480469 80.601562 C 216.417969 81.140625 217.339844 81.707031 218.25 82.296875 C 219.15625 82.890625 220.042969 83.507812 220.914062 84.148438 C 221.785156 84.792969 222.636719 85.460938 223.46875 86.152344 C 224.304688 86.84375 225.113281 87.558594 225.90625 88.296875 C 226.695312 89.039062 227.464844 89.800781 228.210938 90.582031 C 228.960938 91.367188 229.683594 92.171875 230.382812 92.996094 C 231.085938 93.820312 231.761719 94.667969 232.410156 95.53125 C 233.0625 96.398438 233.6875 97.28125 234.289062 98.179688 C 234.890625 99.082031 235.464844 100 236.011719 100.933594 C 236.558594 101.867188 237.078125 102.816406 237.570312 103.78125 C 238.0625 104.742188 238.527344 105.722656 238.964844 106.710938 C 239.398438 107.703125 239.804688 108.707031 240.183594 109.722656 C 240.5625 110.734375 240.910156 111.761719 241.226562 112.792969 C 241.546875 113.828125 241.835938 114.871094 242.09375 115.925781 C 242.351562 116.976562 242.578125 118.035156 242.777344 119.097656 C 242.972656 120.164062 243.140625 121.230469 243.273438 122.304688 C 243.410156 123.378906 243.511719 124.457031 243.585938 125.539062 C 243.660156 126.617188 243.699219 127.699219 243.710938 128.78125 C 243.71875 129.863281 243.699219 130.945312 243.648438 132.027344 C 243.59375 133.109375 243.511719 134.1875 243.394531 135.265625 C 243.28125 136.339844 243.136719 137.414062 242.957031 138.480469 C 242.78125 139.550781 242.574219 140.609375 242.335938 141.667969 C 242.097656 142.722656 241.828125 143.773438 241.53125 144.8125 C 241.230469 145.851562 240.902344 146.882812 240.542969 147.90625 C 240.183594 148.925781 239.796875 149.9375 239.378906 150.9375 C 238.960938 151.933594 238.515625 152.921875 238.042969 153.894531 C 237.566406 154.867188 237.066406 155.828125 236.535156 156.769531 C 236.007812 157.714844 235.449219 158.644531 234.867188 159.554688 C 234.285156 160.46875 233.675781 161.359375 233.039062 162.238281 C 232.402344 163.113281 231.742188 163.972656 231.058594 164.8125 C 230.375 165.648438 229.667969 166.46875 228.933594 167.265625 C 228.203125 168.0625 227.449219 168.839844 226.671875 169.59375 C 225.894531 170.347656 225.09375 171.078125 224.277344 171.785156 C 223.457031 172.492188 222.617188 173.175781 221.757812 173.835938 C 220.898438 174.496094 220.023438 175.128906 219.128906 175.738281 C 218.230469 176.34375 217.320312 176.925781 216.390625 177.484375 C 215.460938 178.039062 214.515625 178.566406 213.558594 179.066406 C 212.597656 179.570312 211.625 180.042969 210.636719 180.484375 C 209.648438 180.929688 208.652344 181.347656 207.640625 181.734375 C 206.628906 182.121094 205.605469 182.476562 204.574219 182.804688 C 203.542969 183.132812 202.503906 183.429688 201.453125 183.699219 C 200.40625 183.964844 199.347656 184.203125 198.285156 184.410156 C 197.222656 184.617188 196.15625 184.792969 195.082031 184.9375 C 194.011719 185.082031 192.933594 185.195312 191.855469 185.277344 C 190.773438 185.359375 189.695312 185.410156 188.613281 185.429688 C 187.527344 185.449219 186.445312 185.4375 185.363281 185.394531 C 184.285156 185.351562 183.203125 185.277344 182.125 185.171875 C 181.046875 185.066406 179.976562 184.933594 178.90625 184.765625 C 177.835938 184.597656 176.773438 184.398438 175.714844 184.171875 C 174.65625 183.941406 173.605469 183.683594 172.5625 183.390625 C 171.519531 183.101562 170.484375 182.78125 169.460938 182.433594 C 168.4375 182.082031 167.421875 181.703125 166.417969 181.296875 C 165.417969 180.886719 164.425781 180.453125 163.449219 179.984375 C 162.472656 179.519531 161.507812 179.027344 160.558594 178.503906 C 159.609375 177.984375 158.675781 177.4375 157.761719 176.859375 C 110.636719 147.007812 131.054688 73.753906 187.554688 73.179688 Z M 253.378906 301.929688 L 121.734375 301.929688 C 120.375 301.925781 119.019531 301.859375 117.667969 301.722656 C 116.316406 301.585938 114.972656 301.386719 113.640625 301.117188 C 112.308594 300.851562 110.996094 300.519531 109.695312 300.125 C 108.394531 299.726562 107.121094 299.269531 105.863281 298.746094 C 104.609375 298.226562 103.386719 297.644531 102.1875 297.003906 C 100.992188 296.359375 99.828125 295.664062 98.699219 294.90625 C 97.570312 294.152344 96.480469 293.339844 95.433594 292.480469 C 94.382812 291.617188 93.378906 290.703125 92.417969 289.742188 C 91.457031 288.78125 90.546875 287.777344 89.6875 286.726562 C 88.824219 285.675781 88.015625 284.585938 87.261719 283.457031 C 86.507812 282.324219 85.8125 281.160156 85.171875 279.964844 C 84.53125 278.765625 83.953125 277.539062 83.433594 276.285156 C 82.914062 275.027344 82.457031 273.75 82.0625 272.453125 C 81.667969 271.152344 81.335938 269.835938 81.070312 268.503906 C 80.804688 267.171875 80.605469 265.828125 80.472656 264.476562 C 80.339844 263.125 80.273438 261.769531 80.273438 260.410156 C 80.273438 225.242188 106.175781 194.875 143.347656 181.207031 C 144.878906 182.5 146.460938 183.726562 148.101562 184.882812 C 149.738281 186.035156 151.421875 187.117188 153.152344 188.125 C 154.886719 189.132812 156.660156 190.0625 158.472656 190.914062 C 160.289062 191.765625 162.136719 192.535156 164.015625 193.222656 C 165.898438 193.914062 167.804688 194.519531 169.742188 195.039062 C 171.675781 195.5625 173.628906 195.996094 175.601562 196.347656 C 177.574219 196.695312 179.558594 196.960938 181.554688 197.136719 C 183.550781 197.3125 185.550781 197.398438 187.554688 197.398438 C 189.558594 197.398438 191.558594 197.3125 193.554688 197.136719 C 195.550781 196.960938 197.535156 196.695312 199.507812 196.347656 C 201.480469 195.996094 203.433594 195.5625 205.371094 195.039062 C 207.304688 194.519531 209.210938 193.914062 211.09375 193.222656 C 212.976562 192.535156 214.824219 191.765625 216.636719 190.914062 C 218.449219 190.0625 220.222656 189.132812 221.957031 188.125 C 223.6875 187.117188 225.375 186.035156 227.011719 184.882812 C 228.648438 183.726562 230.230469 182.5 231.761719 181.207031 C 268.933594 194.875 294.839844 225.242188 294.839844 260.410156 C 294.839844 261.769531 294.769531 263.125 294.636719 264.476562 C 294.503906 265.828125 294.304688 267.171875 294.039062 268.503906 C 293.773438 269.835938 293.445312 271.152344 293.050781 272.453125 C 292.65625 273.75 292.199219 275.027344 291.679688 276.285156 C 291.160156 277.539062 290.578125 278.765625 289.9375 279.964844 C 289.296875 281.160156 288.601562 282.324219 287.847656 283.457031 C 287.09375 284.585938 286.285156 285.675781 285.425781 286.726562 C 284.5625 287.777344 283.652344 288.78125 282.691406 289.742188 C 281.734375 290.703125 280.726562 291.617188 279.679688 292.480469 C 278.628906 293.339844 277.539062 294.152344 276.410156 294.90625 C 275.28125 295.664062 274.121094 296.359375 272.921875 297.003906 C 271.726562 297.644531 270.5 298.226562 269.246094 298.746094 C 267.992188 299.269531 266.714844 299.726562 265.414062 300.125 C 264.117188 300.519531 262.800781 300.851562 261.46875 301.121094 C 260.136719 301.386719 258.792969 301.585938 257.441406 301.722656 C 256.089844 301.859375 254.738281 301.925781 253.378906 301.929688 Z M 253.378906 301.929688 " fill-opacity="1" fill-rule="nonzero"/></g></svg>